<mxfile host="app.diagrams.net" modified="2024-01-14T05:44:06.941Z" agent="Mozilla/5.0 (Macintosh; Intel Mac OS X 10_15_7) AppleWebKit/537.36 (KHTML, like Gecko) Chrome/120.0.0.0 Safari/537.36" etag="9YG6gD-NF4L4Et00PE_q" version="22.1.18" type="device">
  <diagram name="ページ1" id="ihQup7LJ97_RT0z3Sxxi">
    <mxGraphModel dx="2832" dy="1327" grid="0" gridSize="10" guides="1" tooltips="1" connect="1" arrows="1" fold="1" page="0" pageScale="1" pageWidth="827" pageHeight="1169" math="0" shadow="0">
      <root>
        <mxCell id="0" />
        <mxCell id="1" parent="0" />
        <mxCell id="yb4R___12dFvjNR_DCMR-5" value="ホーム画面&lt;br&gt;(未ログイン状態)" style="strokeWidth=1;shadow=0;dashed=0;align=center;html=1;shape=mxgraph.mockup.containers.browserWindow;rSize=0;strokeColor=#666666;strokeColor2=#008cff;strokeColor3=#c4c4c4;mainText=,;recursiveResize=0;fontSize=40;verticalAlign=middle;" vertex="1" parent="1">
          <mxGeometry x="-508" y="494" width="550" height="380" as="geometry" />
        </mxCell>
        <mxCell id="yb4R___12dFvjNR_DCMR-6" value="Page 1" style="strokeWidth=1;shadow=0;dashed=0;align=center;html=1;shape=mxgraph.mockup.containers.anchor;fontSize=17;fontColor=#666666;align=left;whiteSpace=wrap;" vertex="1" parent="yb4R___12dFvjNR_DCMR-5">
          <mxGeometry x="60" y="12" width="110" height="26" as="geometry" />
        </mxCell>
        <mxCell id="yb4R___12dFvjNR_DCMR-7" value="https://www.draw.io" style="strokeWidth=1;shadow=0;dashed=0;align=center;html=1;shape=mxgraph.mockup.containers.anchor;rSize=0;fontSize=17;fontColor=#666666;align=left;" vertex="1" parent="yb4R___12dFvjNR_DCMR-5">
          <mxGeometry x="130" y="60" width="250" height="26" as="geometry" />
        </mxCell>
        <mxCell id="yb4R___12dFvjNR_DCMR-17" style="edgeStyle=none;curved=1;rounded=0;orthogonalLoop=1;jettySize=auto;html=1;entryX=0.5;entryY=0;entryDx=0;entryDy=0;fontSize=12;startSize=8;endSize=8;" edge="1" parent="1" source="yb4R___12dFvjNR_DCMR-11" target="yb4R___12dFvjNR_DCMR-15">
          <mxGeometry relative="1" as="geometry" />
        </mxCell>
        <mxCell id="yb4R___12dFvjNR_DCMR-11" value="ホーム画面&lt;br&gt;(ログイン状態)" style="strokeWidth=1;shadow=0;dashed=0;align=center;html=1;shape=mxgraph.mockup.containers.browserWindow;rSize=0;strokeColor=#666666;strokeColor2=#008cff;strokeColor3=#c4c4c4;mainText=,;recursiveResize=0;fontSize=40;verticalAlign=middle;" vertex="1" parent="1">
          <mxGeometry x="-508" y="1046" width="550" height="380" as="geometry" />
        </mxCell>
        <mxCell id="yb4R___12dFvjNR_DCMR-12" value="Page 1" style="strokeWidth=1;shadow=0;dashed=0;align=center;html=1;shape=mxgraph.mockup.containers.anchor;fontSize=17;fontColor=#666666;align=left;whiteSpace=wrap;" vertex="1" parent="yb4R___12dFvjNR_DCMR-11">
          <mxGeometry x="60" y="12" width="110" height="26" as="geometry" />
        </mxCell>
        <mxCell id="yb4R___12dFvjNR_DCMR-13" value="https://www.draw.io" style="strokeWidth=1;shadow=0;dashed=0;align=center;html=1;shape=mxgraph.mockup.containers.anchor;rSize=0;fontSize=17;fontColor=#666666;align=left;" vertex="1" parent="yb4R___12dFvjNR_DCMR-11">
          <mxGeometry x="130" y="60" width="250" height="26" as="geometry" />
        </mxCell>
        <mxCell id="yb4R___12dFvjNR_DCMR-14" value="&lt;font style=&quot;font-size: 45px;&quot;&gt;ログイン機能&lt;/font&gt;" style="edgeStyle=none;curved=1;rounded=0;orthogonalLoop=1;jettySize=auto;html=1;entryX=0.5;entryY=0.022;entryDx=0;entryDy=0;entryPerimeter=0;fontSize=12;startSize=8;endSize=8;" edge="1" parent="1" source="yb4R___12dFvjNR_DCMR-5" target="yb4R___12dFvjNR_DCMR-11">
          <mxGeometry relative="1" as="geometry" />
        </mxCell>
        <mxCell id="yb4R___12dFvjNR_DCMR-23" style="edgeStyle=none;curved=1;rounded=0;orthogonalLoop=1;jettySize=auto;html=1;entryX=1;entryY=0.5;entryDx=0;entryDy=0;fontSize=12;startSize=8;endSize=8;" edge="1" parent="1" source="yb4R___12dFvjNR_DCMR-15" target="yb4R___12dFvjNR_DCMR-21">
          <mxGeometry relative="1" as="geometry" />
        </mxCell>
        <mxCell id="yb4R___12dFvjNR_DCMR-34" style="edgeStyle=none;curved=1;rounded=0;orthogonalLoop=1;jettySize=auto;html=1;entryX=0.5;entryY=0;entryDx=0;entryDy=0;fontSize=12;" edge="1" parent="1" source="yb4R___12dFvjNR_DCMR-15" target="yb4R___12dFvjNR_DCMR-31">
          <mxGeometry relative="1" as="geometry" />
        </mxCell>
        <mxCell id="yb4R___12dFvjNR_DCMR-36" style="edgeStyle=orthogonalEdgeStyle;rounded=0;orthogonalLoop=1;jettySize=auto;html=1;entryX=0.5;entryY=0;entryDx=0;entryDy=0;fontSize=12;startSize=8;endSize=8;exitX=0.5;exitY=1;exitDx=0;exitDy=0;" edge="1" parent="1" source="yb4R___12dFvjNR_DCMR-15" target="yb4R___12dFvjNR_DCMR-32">
          <mxGeometry relative="1" as="geometry">
            <mxPoint x="-214" y="1726" as="sourcePoint" />
            <Array as="points">
              <mxPoint x="-227" y="1769" />
              <mxPoint x="595" y="1769" />
            </Array>
          </mxGeometry>
        </mxCell>
        <mxCell id="yb4R___12dFvjNR_DCMR-15" value="&lt;font style=&quot;font-size: 40px;&quot;&gt;メニューバーより&lt;/font&gt;" style="rounded=0;whiteSpace=wrap;html=1;fontSize=16;" vertex="1" parent="1">
          <mxGeometry x="-508" y="1581" width="561" height="98" as="geometry" />
        </mxCell>
        <mxCell id="yb4R___12dFvjNR_DCMR-29" style="edgeStyle=orthogonalEdgeStyle;rounded=0;orthogonalLoop=1;jettySize=auto;html=1;fontSize=12;startSize=8;endSize=8;" edge="1" parent="1" source="yb4R___12dFvjNR_DCMR-21">
          <mxGeometry relative="1" as="geometry">
            <mxPoint x="-509" y="1202" as="targetPoint" />
            <Array as="points">
              <mxPoint x="-960" y="1203" />
            </Array>
          </mxGeometry>
        </mxCell>
        <mxCell id="yb4R___12dFvjNR_DCMR-21" value="&lt;font style=&quot;font-size: 40px;&quot;&gt;ホーム画面選択時&lt;/font&gt;" style="rounded=0;whiteSpace=wrap;html=1;fontSize=16;" vertex="1" parent="1">
          <mxGeometry x="-1240" y="1581" width="561" height="98" as="geometry" />
        </mxCell>
        <mxCell id="yb4R___12dFvjNR_DCMR-30" value="&lt;span style=&quot;font-size: 40px;&quot;&gt;社員一覧選択時&lt;br&gt;&lt;/span&gt;" style="rounded=0;whiteSpace=wrap;html=1;fontSize=16;flipH=1;flipV=1;" vertex="1" parent="1">
          <mxGeometry x="-1326" y="1851" width="561" height="98" as="geometry" />
        </mxCell>
        <mxCell id="yb4R___12dFvjNR_DCMR-31" value="&lt;span style=&quot;font-size: 40px;&quot;&gt;月次報告書作成選択時&lt;br&gt;&lt;/span&gt;" style="rounded=0;whiteSpace=wrap;html=1;fontSize=16;flipH=1;flipV=1;" vertex="1" parent="1">
          <mxGeometry x="-506" y="1851" width="561" height="98" as="geometry" />
        </mxCell>
        <mxCell id="yb4R___12dFvjNR_DCMR-32" value="&lt;span style=&quot;font-size: 40px;&quot;&gt;社員登録選択時&lt;br&gt;&lt;/span&gt;" style="rounded=0;whiteSpace=wrap;html=1;fontSize=16;flipH=1;flipV=1;" vertex="1" parent="1">
          <mxGeometry x="314" y="1851" width="561" height="98" as="geometry" />
        </mxCell>
        <mxCell id="yb4R___12dFvjNR_DCMR-35" style="edgeStyle=orthogonalEdgeStyle;rounded=0;orthogonalLoop=1;jettySize=auto;html=1;entryX=0.5;entryY=0;entryDx=0;entryDy=0;fontSize=12;exitX=0.501;exitY=1.004;exitDx=0;exitDy=0;exitPerimeter=0;" edge="1" parent="1" source="yb4R___12dFvjNR_DCMR-15" target="yb4R___12dFvjNR_DCMR-30">
          <mxGeometry relative="1" as="geometry">
            <mxPoint x="-226" y="1681" as="sourcePoint" />
            <mxPoint x="-1028" y="1859" as="targetPoint" />
            <Array as="points">
              <mxPoint x="-227" y="1687" />
              <mxPoint x="-227" y="1687" />
              <mxPoint x="-227" y="1770" />
              <mxPoint x="-1045" y="1770" />
            </Array>
          </mxGeometry>
        </mxCell>
        <mxCell id="yb4R___12dFvjNR_DCMR-37" value="社員一覧" style="strokeWidth=1;shadow=0;dashed=0;align=center;html=1;shape=mxgraph.mockup.containers.browserWindow;rSize=0;strokeColor=#666666;strokeColor2=#008cff;strokeColor3=#c4c4c4;mainText=,;recursiveResize=0;fontSize=40;verticalAlign=middle;" vertex="1" parent="1">
          <mxGeometry x="-1327" y="2140" width="560" height="380" as="geometry" />
        </mxCell>
        <mxCell id="yb4R___12dFvjNR_DCMR-38" value="Page 1" style="strokeWidth=1;shadow=0;dashed=0;align=center;html=1;shape=mxgraph.mockup.containers.anchor;fontSize=17;fontColor=#666666;align=left;whiteSpace=wrap;" vertex="1" parent="yb4R___12dFvjNR_DCMR-37">
          <mxGeometry x="60" y="12" width="110" height="26" as="geometry" />
        </mxCell>
        <mxCell id="yb4R___12dFvjNR_DCMR-39" value="https://www.draw.io" style="strokeWidth=1;shadow=0;dashed=0;align=center;html=1;shape=mxgraph.mockup.containers.anchor;rSize=0;fontSize=17;fontColor=#666666;align=left;" vertex="1" parent="yb4R___12dFvjNR_DCMR-37">
          <mxGeometry x="130" y="60" width="250" height="26" as="geometry" />
        </mxCell>
        <mxCell id="yb4R___12dFvjNR_DCMR-41" style="edgeStyle=none;curved=1;rounded=0;orthogonalLoop=1;jettySize=auto;html=1;entryX=0.501;entryY=-0.001;entryDx=0;entryDy=0;entryPerimeter=0;fontSize=12;startSize=8;endSize=8;" edge="1" parent="1" source="yb4R___12dFvjNR_DCMR-30" target="yb4R___12dFvjNR_DCMR-37">
          <mxGeometry relative="1" as="geometry" />
        </mxCell>
        <mxCell id="yb4R___12dFvjNR_DCMR-42" value="月次報告書作成" style="strokeWidth=1;shadow=0;dashed=0;align=center;html=1;shape=mxgraph.mockup.containers.browserWindow;rSize=0;strokeColor=#666666;strokeColor2=#008cff;strokeColor3=#c4c4c4;mainText=,;recursiveResize=0;fontSize=40;verticalAlign=middle;" vertex="1" parent="1">
          <mxGeometry x="-504" y="2140" width="560" height="380" as="geometry" />
        </mxCell>
        <mxCell id="yb4R___12dFvjNR_DCMR-43" value="Page 1" style="strokeWidth=1;shadow=0;dashed=0;align=center;html=1;shape=mxgraph.mockup.containers.anchor;fontSize=17;fontColor=#666666;align=left;whiteSpace=wrap;" vertex="1" parent="yb4R___12dFvjNR_DCMR-42">
          <mxGeometry x="60" y="12" width="110" height="26" as="geometry" />
        </mxCell>
        <mxCell id="yb4R___12dFvjNR_DCMR-44" value="https://www.draw.io" style="strokeWidth=1;shadow=0;dashed=0;align=center;html=1;shape=mxgraph.mockup.containers.anchor;rSize=0;fontSize=17;fontColor=#666666;align=left;" vertex="1" parent="yb4R___12dFvjNR_DCMR-42">
          <mxGeometry x="130" y="60" width="250" height="26" as="geometry" />
        </mxCell>
        <mxCell id="yb4R___12dFvjNR_DCMR-45" style="edgeStyle=none;curved=1;rounded=0;orthogonalLoop=1;jettySize=auto;html=1;fontSize=12;startSize=8;endSize=8;" edge="1" parent="1" source="yb4R___12dFvjNR_DCMR-31" target="yb4R___12dFvjNR_DCMR-42">
          <mxGeometry relative="1" as="geometry" />
        </mxCell>
        <mxCell id="yb4R___12dFvjNR_DCMR-46" value="社員登録" style="strokeWidth=1;shadow=0;dashed=0;align=center;html=1;shape=mxgraph.mockup.containers.browserWindow;rSize=0;strokeColor=#666666;strokeColor2=#008cff;strokeColor3=#c4c4c4;mainText=,;recursiveResize=0;fontSize=40;verticalAlign=middle;" vertex="1" parent="1">
          <mxGeometry x="305" y="2140" width="560" height="380" as="geometry" />
        </mxCell>
        <mxCell id="yb4R___12dFvjNR_DCMR-47" value="Page 1" style="strokeWidth=1;shadow=0;dashed=0;align=center;html=1;shape=mxgraph.mockup.containers.anchor;fontSize=17;fontColor=#666666;align=left;whiteSpace=wrap;" vertex="1" parent="yb4R___12dFvjNR_DCMR-46">
          <mxGeometry x="60" y="12" width="110" height="26" as="geometry" />
        </mxCell>
        <mxCell id="yb4R___12dFvjNR_DCMR-48" value="https://www.draw.io" style="strokeWidth=1;shadow=0;dashed=0;align=center;html=1;shape=mxgraph.mockup.containers.anchor;rSize=0;fontSize=17;fontColor=#666666;align=left;" vertex="1" parent="yb4R___12dFvjNR_DCMR-46">
          <mxGeometry x="130" y="60" width="250" height="26" as="geometry" />
        </mxCell>
        <mxCell id="yb4R___12dFvjNR_DCMR-51" style="edgeStyle=none;curved=1;rounded=0;orthogonalLoop=1;jettySize=auto;html=1;entryX=0.52;entryY=0.01;entryDx=0;entryDy=0;entryPerimeter=0;fontSize=12;startSize=8;endSize=8;" edge="1" parent="1" source="yb4R___12dFvjNR_DCMR-32" target="yb4R___12dFvjNR_DCMR-46">
          <mxGeometry relative="1" as="geometry" />
        </mxCell>
        <mxCell id="yb4R___12dFvjNR_DCMR-52" value="" style="fontColor=#0066CC;verticalAlign=top;verticalLabelPosition=bottom;labelPosition=center;align=center;html=1;outlineConnect=0;fillColor=#CCCCCC;strokeColor=#6881B3;gradientColor=none;gradientDirection=north;strokeWidth=2;shape=mxgraph.networks.monitor;fontSize=16;" vertex="1" parent="1">
          <mxGeometry x="-414.46" y="-174" width="372.92" height="303" as="geometry" />
        </mxCell>
        <mxCell id="yb4R___12dFvjNR_DCMR-54" value="&lt;font style=&quot;font-size: 45px;&quot;&gt;アクセス&lt;/font&gt;" style="edgeStyle=none;curved=1;rounded=0;orthogonalLoop=1;jettySize=auto;html=1;entryX=0.509;entryY=0.004;entryDx=0;entryDy=0;entryPerimeter=0;fontSize=12;startSize=8;endSize=8;" edge="1" parent="1" source="yb4R___12dFvjNR_DCMR-52" target="yb4R___12dFvjNR_DCMR-5">
          <mxGeometry relative="1" as="geometry" />
        </mxCell>
      </root>
    </mxGraphModel>
  </diagram>
</mxfile>
